<svg width="28" height="26" viewBox="0 0 28 26" fill="none" xmlns="http://www.w3.org/2000/svg">
<path d="M17.5 0.5C16.9696 0.5 16.4609 0.710714 16.0858 1.08579C15.7107 1.46086 15.5 1.96957 15.5 2.5V6.5C15.5 7.03043 15.7107 7.53914 16.0858 7.91421C16.4609 8.28929 16.9696 8.5 17.5 8.5V11.5L21.1 8.5H25.5C26.0304 8.5 26.5391 8.28929 26.9142 7.91421C27.2893 7.53914 27.5 7.03043 27.5 6.5V2.5C27.5 1.96957 27.2893 1.46086 26.9142 1.08579C26.5391 0.710714 26.0304 0.5 25.5 0.5H17.5ZM8.5 5.5C7.43913 5.5 6.42172 5.92143 5.67157 6.67157C4.92143 7.42172 4.5 8.43913 4.5 9.5C4.5 10.5609 4.92143 11.5783 5.67157 12.3284C6.42172 13.0786 7.43913 13.5 8.5 13.5C9.56087 13.5 10.5783 13.0786 11.3284 12.3284C12.0786 11.5783 12.5 10.5609 12.5 9.5C12.5 8.43913 12.0786 7.42172 11.3284 6.67157C10.5783 5.92143 9.56087 5.5 8.5 5.5V5.5ZM13.5 15.5H3.5C2.70435 15.5 1.94129 15.8161 1.37868 16.3787C0.816071 16.9413 0.5 17.7044 0.5 18.5C0.5 20.732 1.418 22.52 2.924 23.73C4.406 24.92 6.394 25.5 8.5 25.5C10.606 25.5 12.594 24.92 14.076 23.73C15.58 22.52 16.5 20.732 16.5 18.5C16.5 17.7044 16.1839 16.9413 15.6213 16.3787C15.0587 15.8161 14.2956 15.5 13.5 15.5V15.5Z" fill="white"/>
</svg>
