<svg width="43" height="55" viewBox="0 0 43 55" fill="none" xmlns="http://www.w3.org/2000/svg">
<circle cx="5.36585" cy="5.36585" r="5.36585" fill="#FCE1FF"/>
<circle cx="5.36585" cy="5.36585" r="5.36585" fill="#FCE1FF"/>
<circle cx="5.36585" cy="20.122" r="5.36585" fill="#FCE1FF"/>
<circle cx="5.36585" cy="34.8781" r="5.36585" fill="#FCE1FF"/>
<circle cx="5.36585" cy="49.6342" r="5.36585" fill="#FCE1FF"/>
<circle cx="5.36585" cy="20.122" r="5.36585" fill="#FCE1FF"/>
<circle cx="5.36585" cy="34.8781" r="5.36585" fill="#FCE1FF"/>
<circle cx="5.36585" cy="49.6342" r="5.36585" fill="#FCE1FF"/>
<circle cx="20.122" cy="5.36585" r="5.36585" fill="#FCE1FF"/>
<circle cx="20.122" cy="5.36585" r="5.36585" fill="#FCE1FF"/>
<circle cx="20.122" cy="20.122" r="5.36585" fill="#FCE1FF"/>
<circle cx="20.122" cy="34.8781" r="5.36585" fill="#FCE1FF"/>
<circle cx="20.122" cy="49.6342" r="5.36585" fill="#FCE1FF"/>
<circle cx="20.122" cy="20.122" r="5.36585" fill="#FCE1FF"/>
<circle cx="20.122" cy="34.8781" r="5.36585" fill="#FCE1FF"/>
<circle cx="20.122" cy="49.6342" r="5.36585" fill="#FCE1FF"/>
<circle cx="34.8781" cy="5.36585" r="5.36585" fill="#FCE1FF"/>
<circle cx="34.8781" cy="5.36585" r="5.36585" fill="#FCE1FF"/>
<circle cx="34.8781" cy="20.122" r="5.36585" fill="#FCE1FF"/>
<circle cx="34.8781" cy="34.8781" r="5.36585" fill="#FCE1FF"/>
<circle cx="34.8781" cy="49.6342" r="5.36585" fill="#FCE1FF"/>
<circle cx="34.8781" cy="20.122" r="5.36585" fill="#FCE1FF"/>
<circle cx="34.8781" cy="34.8781" r="5.36585" fill="#FCE1FF"/>
<circle cx="34.8781" cy="49.6342" r="5.36585" fill="#FCE1FF"/>
</svg>
