<svg xmlns="http://www.w3.org/2000/svg" width="43" height="55" fill="none" viewBox="0 0 43 55"><circle cx="5.366" cy="5.366" r="5.366" fill="#FCE1FF"/><circle cx="5.366" cy="5.366" r="5.366" fill="#FCE1FF"/><circle cx="5.366" cy="20.122" r="5.366" fill="#FCE1FF"/><circle cx="5.366" cy="34.878" r="5.366" fill="#FCE1FF"/><circle cx="5.366" cy="49.634" r="5.366" fill="#FCE1FF"/><circle cx="5.366" cy="20.122" r="5.366" fill="#FCE1FF"/><circle cx="5.366" cy="34.878" r="5.366" fill="#FCE1FF"/><circle cx="5.366" cy="49.634" r="5.366" fill="#FCE1FF"/><circle cx="20.122" cy="5.366" r="5.366" fill="#FCE1FF"/><circle cx="20.122" cy="5.366" r="5.366" fill="#FCE1FF"/><circle cx="20.122" cy="20.122" r="5.366" fill="#FCE1FF"/><circle cx="20.122" cy="34.878" r="5.366" fill="#FCE1FF"/><circle cx="20.122" cy="49.634" r="5.366" fill="#FCE1FF"/><circle cx="20.122" cy="20.122" r="5.366" fill="#FCE1FF"/><circle cx="20.122" cy="34.878" r="5.366" fill="#FCE1FF"/><circle cx="20.122" cy="49.634" r="5.366" fill="#FCE1FF"/><circle cx="34.878" cy="5.366" r="5.366" fill="#FCE1FF"/><circle cx="34.878" cy="5.366" r="5.366" fill="#FCE1FF"/><circle cx="34.878" cy="20.122" r="5.366" fill="#FCE1FF"/><circle cx="34.878" cy="34.878" r="5.366" fill="#FCE1FF"/><circle cx="34.878" cy="49.634" r="5.366" fill="#FCE1FF"/><circle cx="34.878" cy="20.122" r="5.366" fill="#FCE1FF"/><circle cx="34.878" cy="34.878" r="5.366" fill="#FCE1FF"/><circle cx="34.878" cy="49.634" r="5.366" fill="#FCE1FF"/></svg>