<svg width="39" height="42" viewBox="0 0 39 42" fill="none" xmlns="http://www.w3.org/2000/svg">
<circle cx="0.597561" cy="4.09756" r="4.09756" fill="#FC0D49" fill-opacity="0.6"/>
<circle cx="0.597561" cy="4.09756" r="4.09756" fill="#FC0D49" fill-opacity="0.6"/>
<circle cx="0.597561" cy="15.3658" r="4.09756" fill="#FC0D49" fill-opacity="0.6"/>
<circle cx="0.597561" cy="26.6341" r="4.09756" fill="#FC0D49" fill-opacity="0.6"/>
<circle cx="0.597561" cy="37.9024" r="4.09756" fill="#FC0D49" fill-opacity="0.6"/>
<circle cx="0.597561" cy="15.3658" r="4.09756" fill="#FC0D49" fill-opacity="0.6"/>
<circle cx="0.597561" cy="26.6341" r="4.09756" fill="#FC0D49" fill-opacity="0.6"/>
<circle cx="0.597561" cy="37.9024" r="4.09756" fill="#FC0D49" fill-opacity="0.6"/>
<circle cx="11.8659" cy="4.09756" r="4.09756" fill="#FC0D49" fill-opacity="0.6"/>
<circle cx="11.8659" cy="4.09756" r="4.09756" fill="#FC0D49" fill-opacity="0.6"/>
<circle cx="11.8659" cy="15.3658" r="4.09756" fill="#FC0D49" fill-opacity="0.6"/>
<circle cx="11.8659" cy="26.6341" r="4.09756" fill="#FC0D49" fill-opacity="0.6"/>
<circle cx="11.8659" cy="37.9024" r="4.09756" fill="#FC0D49" fill-opacity="0.6"/>
<circle cx="11.8659" cy="15.3658" r="4.09756" fill="#FC0D49" fill-opacity="0.6"/>
<circle cx="11.8659" cy="26.6341" r="4.09756" fill="#FC0D49" fill-opacity="0.6"/>
<circle cx="11.8659" cy="37.9024" r="4.09756" fill="#FC0D49" fill-opacity="0.6"/>
<circle cx="23.1341" cy="4.09756" r="4.09756" fill="#FC0D49" fill-opacity="0.6"/>
<circle cx="23.1341" cy="4.09756" r="4.09756" fill="#FC0D49" fill-opacity="0.6"/>
<circle cx="23.1341" cy="15.3658" r="4.09756" fill="#FC0D49" fill-opacity="0.6"/>
<circle cx="23.1341" cy="26.6341" r="4.09756" fill="#FC0D49" fill-opacity="0.6"/>
<circle cx="23.1341" cy="37.9024" r="4.09756" fill="#FC0D49" fill-opacity="0.6"/>
<circle cx="23.1341" cy="15.3658" r="4.09756" fill="#FC0D49" fill-opacity="0.6"/>
<circle cx="23.1341" cy="26.6341" r="4.09756" fill="#FC0D49" fill-opacity="0.6"/>
<circle cx="23.1341" cy="37.9024" r="4.09756" fill="#FC0D49" fill-opacity="0.6"/>
<circle cx="34.4024" cy="4.09756" r="4.09756" fill="#FC0D49" fill-opacity="0.6"/>
<circle cx="34.4024" cy="4.09756" r="4.09756" fill="#FC0D49" fill-opacity="0.6"/>
<circle cx="34.4024" cy="15.3658" r="4.09756" fill="#FC0D49" fill-opacity="0.6"/>
<circle cx="34.4024" cy="26.6341" r="4.09756" fill="#FC0D49" fill-opacity="0.6"/>
<circle cx="34.4024" cy="37.9024" r="4.09756" fill="#FC0D49" fill-opacity="0.6"/>
<circle cx="34.4024" cy="15.3658" r="4.09756" fill="#FC0D49" fill-opacity="0.6"/>
<circle cx="34.4024" cy="26.6341" r="4.09756" fill="#FC0D49" fill-opacity="0.6"/>
<circle cx="34.4024" cy="37.9024" r="4.09756" fill="#FC0D49" fill-opacity="0.6"/>
</svg>
