<svg xmlns="http://www.w3.org/2000/svg" width="39" height="42" fill="none" viewBox="0 0 39 42"><circle cx=".598" cy="4.098" r="4.098" fill="#FC0D49" fill-opacity=".6"/><circle cx=".598" cy="4.098" r="4.098" fill="#FC0D49" fill-opacity=".6"/><circle cx=".598" cy="15.366" r="4.098" fill="#FC0D49" fill-opacity=".6"/><circle cx=".598" cy="26.634" r="4.098" fill="#FC0D49" fill-opacity=".6"/><circle cx=".598" cy="37.902" r="4.098" fill="#FC0D49" fill-opacity=".6"/><circle cx=".598" cy="15.366" r="4.098" fill="#FC0D49" fill-opacity=".6"/><circle cx=".598" cy="26.634" r="4.098" fill="#FC0D49" fill-opacity=".6"/><circle cx=".598" cy="37.902" r="4.098" fill="#FC0D49" fill-opacity=".6"/><circle cx="11.866" cy="4.098" r="4.098" fill="#FC0D49" fill-opacity=".6"/><circle cx="11.866" cy="4.098" r="4.098" fill="#FC0D49" fill-opacity=".6"/><circle cx="11.866" cy="15.366" r="4.098" fill="#FC0D49" fill-opacity=".6"/><circle cx="11.866" cy="26.634" r="4.098" fill="#FC0D49" fill-opacity=".6"/><circle cx="11.866" cy="37.902" r="4.098" fill="#FC0D49" fill-opacity=".6"/><circle cx="11.866" cy="15.366" r="4.098" fill="#FC0D49" fill-opacity=".6"/><circle cx="11.866" cy="26.634" r="4.098" fill="#FC0D49" fill-opacity=".6"/><circle cx="11.866" cy="37.902" r="4.098" fill="#FC0D49" fill-opacity=".6"/><circle cx="23.134" cy="4.098" r="4.098" fill="#FC0D49" fill-opacity=".6"/><circle cx="23.134" cy="4.098" r="4.098" fill="#FC0D49" fill-opacity=".6"/><circle cx="23.134" cy="15.366" r="4.098" fill="#FC0D49" fill-opacity=".6"/><circle cx="23.134" cy="26.634" r="4.098" fill="#FC0D49" fill-opacity=".6"/><circle cx="23.134" cy="37.902" r="4.098" fill="#FC0D49" fill-opacity=".6"/><circle cx="23.134" cy="15.366" r="4.098" fill="#FC0D49" fill-opacity=".6"/><circle cx="23.134" cy="26.634" r="4.098" fill="#FC0D49" fill-opacity=".6"/><circle cx="23.134" cy="37.902" r="4.098" fill="#FC0D49" fill-opacity=".6"/><circle cx="34.402" cy="4.098" r="4.098" fill="#FC0D49" fill-opacity=".6"/><circle cx="34.402" cy="4.098" r="4.098" fill="#FC0D49" fill-opacity=".6"/><circle cx="34.402" cy="15.366" r="4.098" fill="#FC0D49" fill-opacity=".6"/><circle cx="34.402" cy="26.634" r="4.098" fill="#FC0D49" fill-opacity=".6"/><circle cx="34.402" cy="37.902" r="4.098" fill="#FC0D49" fill-opacity=".6"/><circle cx="34.402" cy="15.366" r="4.098" fill="#FC0D49" fill-opacity=".6"/><circle cx="34.402" cy="26.634" r="4.098" fill="#FC0D49" fill-opacity=".6"/><circle cx="34.402" cy="37.902" r="4.098" fill="#FC0D49" fill-opacity=".6"/></svg>