<svg xmlns="http://www.w3.org/2000/svg" width="111" height="111" fill="none" viewBox="0 0 111 111"><circle cx="10.829" cy="10.829" r="10.829" fill="#FC0D49" fill-opacity=".6"/><circle cx="10.829" cy="10.829" r="10.829" fill="#FC0D49" fill-opacity=".6"/><circle cx="10.829" cy="40.61" r="10.829" fill="#FC0D49" fill-opacity=".6"/><circle cx="10.829" cy="70.39" r="10.829" fill="#FC0D49" fill-opacity=".6"/><circle cx="10.829" cy="100.171" r="10.829" fill="#FC0D49" fill-opacity=".6"/><circle cx="10.829" cy="40.61" r="10.829" fill="#FC0D49" fill-opacity=".6"/><circle cx="10.829" cy="70.39" r="10.829" fill="#FC0D49" fill-opacity=".6"/><circle cx="10.829" cy="100.171" r="10.829" fill="#FC0D49" fill-opacity=".6"/><circle cx="40.61" cy="10.829" r="10.829" fill="#FC0D49" fill-opacity=".6"/><circle cx="40.61" cy="10.829" r="10.829" fill="#FC0D49" fill-opacity=".6"/><circle cx="40.61" cy="40.61" r="10.829" fill="#FC0D49" fill-opacity=".6"/><circle cx="40.61" cy="70.39" r="10.829" fill="#FC0D49" fill-opacity=".6"/><circle cx="40.61" cy="100.171" r="10.829" fill="#FC0D49" fill-opacity=".6"/><circle cx="40.61" cy="40.61" r="10.829" fill="#FC0D49" fill-opacity=".6"/><circle cx="40.61" cy="70.39" r="10.829" fill="#FC0D49" fill-opacity=".6"/><circle cx="40.61" cy="100.171" r="10.829" fill="#FC0D49" fill-opacity=".6"/><circle cx="70.39" cy="10.829" r="10.829" fill="#FC0D49" fill-opacity=".6"/><circle cx="70.39" cy="10.829" r="10.829" fill="#FC0D49" fill-opacity=".6"/><circle cx="70.39" cy="40.61" r="10.829" fill="#FC0D49" fill-opacity=".6"/><circle cx="70.39" cy="70.39" r="10.829" fill="#FC0D49" fill-opacity=".6"/><circle cx="70.39" cy="100.171" r="10.829" fill="#FC0D49" fill-opacity=".6"/><circle cx="70.39" cy="40.61" r="10.829" fill="#FC0D49" fill-opacity=".6"/><circle cx="70.39" cy="70.39" r="10.829" fill="#FC0D49" fill-opacity=".6"/><circle cx="70.39" cy="100.171" r="10.829" fill="#FC0D49" fill-opacity=".6"/><circle cx="100.171" cy="10.829" r="10.829" fill="#FC0D49" fill-opacity=".6"/><circle cx="100.171" cy="10.829" r="10.829" fill="#FC0D49" fill-opacity=".6"/><circle cx="100.171" cy="40.61" r="10.829" fill="#FC0D49" fill-opacity=".6"/><circle cx="100.171" cy="70.39" r="10.829" fill="#FC0D49" fill-opacity=".6"/><circle cx="100.171" cy="100.171" r="10.829" fill="#FC0D49" fill-opacity=".6"/><circle cx="100.171" cy="40.61" r="10.829" fill="#FC0D49" fill-opacity=".6"/><circle cx="100.171" cy="70.39" r="10.829" fill="#FC0D49" fill-opacity=".6"/><circle cx="100.171" cy="100.171" r="10.829" fill="#FC0D49" fill-opacity=".6"/></svg>