<svg width="111" height="111" viewBox="0 0 111 111" fill="none" xmlns="http://www.w3.org/2000/svg">
<circle cx="10.8293" cy="10.8293" r="10.8293" fill="#FC0D49" fill-opacity="0.6"/>
<circle cx="10.8293" cy="10.8293" r="10.8293" fill="#FC0D49" fill-opacity="0.6"/>
<circle cx="10.8293" cy="40.6096" r="10.8293" fill="#FC0D49" fill-opacity="0.6"/>
<circle cx="10.8293" cy="70.3901" r="10.8293" fill="#FC0D49" fill-opacity="0.6"/>
<circle cx="10.8293" cy="100.171" r="10.8293" fill="#FC0D49" fill-opacity="0.6"/>
<circle cx="10.8293" cy="40.6096" r="10.8293" fill="#FC0D49" fill-opacity="0.6"/>
<circle cx="10.8293" cy="70.3901" r="10.8293" fill="#FC0D49" fill-opacity="0.6"/>
<circle cx="10.8293" cy="100.171" r="10.8293" fill="#FC0D49" fill-opacity="0.6"/>
<circle cx="40.6098" cy="10.8293" r="10.8293" fill="#FC0D49" fill-opacity="0.6"/>
<circle cx="40.6098" cy="10.8293" r="10.8293" fill="#FC0D49" fill-opacity="0.6"/>
<circle cx="40.6098" cy="40.6096" r="10.8293" fill="#FC0D49" fill-opacity="0.6"/>
<circle cx="40.6098" cy="70.3901" r="10.8293" fill="#FC0D49" fill-opacity="0.6"/>
<circle cx="40.6098" cy="100.171" r="10.8293" fill="#FC0D49" fill-opacity="0.6"/>
<circle cx="40.6098" cy="40.6096" r="10.8293" fill="#FC0D49" fill-opacity="0.6"/>
<circle cx="40.6098" cy="70.3901" r="10.8293" fill="#FC0D49" fill-opacity="0.6"/>
<circle cx="40.6098" cy="100.171" r="10.8293" fill="#FC0D49" fill-opacity="0.6"/>
<circle cx="70.3902" cy="10.8293" r="10.8293" fill="#FC0D49" fill-opacity="0.6"/>
<circle cx="70.3902" cy="10.8293" r="10.8293" fill="#FC0D49" fill-opacity="0.6"/>
<circle cx="70.3902" cy="40.6096" r="10.8293" fill="#FC0D49" fill-opacity="0.6"/>
<circle cx="70.3902" cy="70.3901" r="10.8293" fill="#FC0D49" fill-opacity="0.6"/>
<circle cx="70.3902" cy="100.171" r="10.8293" fill="#FC0D49" fill-opacity="0.6"/>
<circle cx="70.3902" cy="40.6096" r="10.8293" fill="#FC0D49" fill-opacity="0.6"/>
<circle cx="70.3902" cy="70.3901" r="10.8293" fill="#FC0D49" fill-opacity="0.6"/>
<circle cx="70.3902" cy="100.171" r="10.8293" fill="#FC0D49" fill-opacity="0.6"/>
<circle cx="100.171" cy="10.8293" r="10.8293" fill="#FC0D49" fill-opacity="0.6"/>
<circle cx="100.171" cy="10.8293" r="10.8293" fill="#FC0D49" fill-opacity="0.6"/>
<circle cx="100.171" cy="40.6096" r="10.8293" fill="#FC0D49" fill-opacity="0.6"/>
<circle cx="100.171" cy="70.3901" r="10.8293" fill="#FC0D49" fill-opacity="0.6"/>
<circle cx="100.171" cy="100.171" r="10.8293" fill="#FC0D49" fill-opacity="0.6"/>
<circle cx="100.171" cy="40.6096" r="10.8293" fill="#FC0D49" fill-opacity="0.6"/>
<circle cx="100.171" cy="70.3901" r="10.8293" fill="#FC0D49" fill-opacity="0.6"/>
<circle cx="100.171" cy="100.171" r="10.8293" fill="#FC0D49" fill-opacity="0.6"/>
</svg>
