<svg width="107" height="107" viewBox="0 0 107 107" fill="none" xmlns="http://www.w3.org/2000/svg">
<circle cx="10.4216" cy="10.4216" r="10.4216" fill="#FC0D49" fill-opacity="0.6"/>
<circle cx="10.4216" cy="10.4216" r="10.4216" fill="#FC0D49" fill-opacity="0.6"/>
<circle cx="10.4216" cy="39.0812" r="10.4216" fill="#FC0D49" fill-opacity="0.6"/>
<circle cx="10.4216" cy="67.7402" r="10.4216" fill="#FC0D49" fill-opacity="0.6"/>
<circle cx="10.4216" cy="96.3999" r="10.4216" fill="#FC0D49" fill-opacity="0.6"/>
<circle cx="10.4216" cy="39.0812" r="10.4216" fill="#FC0D49" fill-opacity="0.6"/>
<circle cx="10.4216" cy="67.7402" r="10.4216" fill="#FC0D49" fill-opacity="0.6"/>
<circle cx="10.4216" cy="96.3999" r="10.4216" fill="#FC0D49" fill-opacity="0.6"/>
<circle cx="39.0813" cy="10.4216" r="10.4216" fill="#FC0D49" fill-opacity="0.6"/>
<circle cx="39.0813" cy="10.4216" r="10.4216" fill="#FC0D49" fill-opacity="0.6"/>
<circle cx="39.0813" cy="39.0812" r="10.4216" fill="#FC0D49" fill-opacity="0.6"/>
<circle cx="39.0813" cy="67.7402" r="10.4216" fill="#FC0D49" fill-opacity="0.6"/>
<circle cx="39.0813" cy="96.3999" r="10.4216" fill="#FC0D49" fill-opacity="0.6"/>
<circle cx="39.0813" cy="39.0812" r="10.4216" fill="#FC0D49" fill-opacity="0.6"/>
<circle cx="39.0813" cy="67.7402" r="10.4216" fill="#FC0D49" fill-opacity="0.6"/>
<circle cx="39.0813" cy="96.3999" r="10.4216" fill="#FC0D49" fill-opacity="0.6"/>
<circle cx="67.7405" cy="10.4216" r="10.4216" fill="#FC0D49" fill-opacity="0.6"/>
<circle cx="67.7405" cy="10.4216" r="10.4216" fill="#FC0D49" fill-opacity="0.6"/>
<circle cx="67.7405" cy="39.0812" r="10.4216" fill="#FC0D49" fill-opacity="0.6"/>
<circle cx="67.7405" cy="67.7402" r="10.4216" fill="#FC0D49" fill-opacity="0.6"/>
<circle cx="67.7405" cy="96.3999" r="10.4216" fill="#FC0D49" fill-opacity="0.6"/>
<circle cx="67.7405" cy="39.0812" r="10.4216" fill="#FC0D49" fill-opacity="0.6"/>
<circle cx="67.7405" cy="67.7402" r="10.4216" fill="#FC0D49" fill-opacity="0.6"/>
<circle cx="67.7405" cy="96.3999" r="10.4216" fill="#FC0D49" fill-opacity="0.6"/>
<circle cx="96.4001" cy="10.4216" r="10.4216" fill="#FC0D49" fill-opacity="0.6"/>
<circle cx="96.4001" cy="10.4216" r="10.4216" fill="#FC0D49" fill-opacity="0.6"/>
<circle cx="96.4001" cy="39.0812" r="10.4216" fill="#FC0D49" fill-opacity="0.6"/>
<circle cx="96.4001" cy="67.7402" r="10.4216" fill="#FC0D49" fill-opacity="0.6"/>
<circle cx="96.4001" cy="96.3999" r="10.4216" fill="#FC0D49" fill-opacity="0.6"/>
<circle cx="96.4001" cy="39.0812" r="10.4216" fill="#FC0D49" fill-opacity="0.6"/>
<circle cx="96.4001" cy="67.7402" r="10.4216" fill="#FC0D49" fill-opacity="0.6"/>
<circle cx="96.4001" cy="96.3999" r="10.4216" fill="#FC0D49" fill-opacity="0.6"/>
</svg>
