<svg xmlns="http://www.w3.org/2000/svg" width="107" height="107" fill="none" viewBox="0 0 107 107"><circle cx="10.422" cy="10.422" r="10.422" fill="#FC0D49" fill-opacity=".6"/><circle cx="10.422" cy="10.422" r="10.422" fill="#FC0D49" fill-opacity=".6"/><circle cx="10.422" cy="39.081" r="10.422" fill="#FC0D49" fill-opacity=".6"/><circle cx="10.422" cy="67.74" r="10.422" fill="#FC0D49" fill-opacity=".6"/><circle cx="10.422" cy="96.4" r="10.422" fill="#FC0D49" fill-opacity=".6"/><circle cx="10.422" cy="39.081" r="10.422" fill="#FC0D49" fill-opacity=".6"/><circle cx="10.422" cy="67.74" r="10.422" fill="#FC0D49" fill-opacity=".6"/><circle cx="10.422" cy="96.4" r="10.422" fill="#FC0D49" fill-opacity=".6"/><circle cx="39.081" cy="10.422" r="10.422" fill="#FC0D49" fill-opacity=".6"/><circle cx="39.081" cy="10.422" r="10.422" fill="#FC0D49" fill-opacity=".6"/><circle cx="39.081" cy="39.081" r="10.422" fill="#FC0D49" fill-opacity=".6"/><circle cx="39.081" cy="67.74" r="10.422" fill="#FC0D49" fill-opacity=".6"/><circle cx="39.081" cy="96.4" r="10.422" fill="#FC0D49" fill-opacity=".6"/><circle cx="39.081" cy="39.081" r="10.422" fill="#FC0D49" fill-opacity=".6"/><circle cx="39.081" cy="67.74" r="10.422" fill="#FC0D49" fill-opacity=".6"/><circle cx="39.081" cy="96.4" r="10.422" fill="#FC0D49" fill-opacity=".6"/><circle cx="67.74" cy="10.422" r="10.422" fill="#FC0D49" fill-opacity=".6"/><circle cx="67.74" cy="10.422" r="10.422" fill="#FC0D49" fill-opacity=".6"/><circle cx="67.74" cy="39.081" r="10.422" fill="#FC0D49" fill-opacity=".6"/><circle cx="67.74" cy="67.74" r="10.422" fill="#FC0D49" fill-opacity=".6"/><circle cx="67.74" cy="96.4" r="10.422" fill="#FC0D49" fill-opacity=".6"/><circle cx="67.74" cy="39.081" r="10.422" fill="#FC0D49" fill-opacity=".6"/><circle cx="67.74" cy="67.74" r="10.422" fill="#FC0D49" fill-opacity=".6"/><circle cx="67.74" cy="96.4" r="10.422" fill="#FC0D49" fill-opacity=".6"/><circle cx="96.4" cy="10.422" r="10.422" fill="#FC0D49" fill-opacity=".6"/><circle cx="96.4" cy="10.422" r="10.422" fill="#FC0D49" fill-opacity=".6"/><circle cx="96.4" cy="39.081" r="10.422" fill="#FC0D49" fill-opacity=".6"/><circle cx="96.4" cy="67.74" r="10.422" fill="#FC0D49" fill-opacity=".6"/><circle cx="96.4" cy="96.4" r="10.422" fill="#FC0D49" fill-opacity=".6"/><circle cx="96.4" cy="39.081" r="10.422" fill="#FC0D49" fill-opacity=".6"/><circle cx="96.4" cy="67.74" r="10.422" fill="#FC0D49" fill-opacity=".6"/><circle cx="96.4" cy="96.4" r="10.422" fill="#FC0D49" fill-opacity=".6"/></svg>