<svg width="27" height="27" viewBox="0 0 27 27" fill="none" xmlns="http://www.w3.org/2000/svg">
<path d="M24.1667 6.83342H22.5547C22.7503 6.18513 22.8443 5.51047 22.8334 4.83342C22.8334 2.26008 20.7401 0.166748 18.1667 0.166748C16.0041 0.166748 14.5601 2.14275 13.6281 4.28008C12.7094 2.26008 11.1921 0.166748 8.83342 0.166748C6.26008 0.166748 4.16675 2.26008 4.16675 4.83342C4.16675 5.62808 4.27208 6.28542 4.44542 6.83342H2.83341C1.36275 6.83342 0.166748 8.02942 0.166748 9.50008V12.1667C0.166748 13.6374 1.36275 14.8334 2.83341 14.8334V24.1667C2.83341 25.6374 4.02941 26.8334 5.50008 26.8334H21.5001C22.9707 26.8334 24.1667 25.6374 24.1667 24.1667V14.8334C25.6374 14.8334 26.8334 13.6374 26.8334 12.1667V9.50008C26.8334 8.02942 25.6374 6.83342 24.1667 6.83342ZM18.1667 2.83341C19.2694 2.83341 20.1667 3.73075 20.1667 4.83342C20.1667 6.83342 19.3321 6.83342 18.8334 6.83342H15.5294C16.2107 4.73208 17.2001 2.83341 18.1667 2.83341ZM6.83342 4.83342C6.83342 3.73075 7.73075 2.83341 8.83342 2.83341C10.0174 2.83341 11.1187 4.86675 11.7641 6.83342H8.16675C7.66808 6.83342 6.83342 6.83342 6.83342 4.83342ZM2.83341 9.50008H12.1667V12.1667H2.83341V9.50008ZM5.50008 24.1667V14.8334H12.1667V24.1667H5.50008ZM21.5001 24.1667H14.8334V14.8334H21.5001V24.1667ZM14.8334 12.1667V9.61341L14.8561 9.50008H24.1667L24.1681 12.1667H14.8334Z" fill="#FFFFFF"/>
</svg>
