<svg xmlns="http://www.w3.org/2000/svg" width="28" height="27" fill="none" viewBox="0 0 28 27"><path fill="#FFF" d="M24.6667 6.83342H23.0547C23.2503 6.18513 23.3443 5.51047 23.3334 4.83342C23.3334 2.26008 21.2401 0.166748 18.6667 0.166748C16.5041 0.166748 15.0601 2.14275 14.1281 4.28008C13.2094 2.26008 11.6921 0.166748 9.33342 0.166748C6.76008 0.166748 4.66675 2.26008 4.66675 4.83342C4.66675 5.62808 4.77208 6.28542 4.94542 6.83342H3.33341C1.86275 6.83342 0.666748 8.02942 0.666748 9.50008V12.1667C0.666748 13.6374 1.86275 14.8334 3.33341 14.8334V24.1667C3.33341 25.6374 4.52941 26.8334 6.00008 26.8334H22.0001C23.4707 26.8334 24.6667 25.6374 24.6667 24.1667V14.8334C26.1374 14.8334 27.3334 13.6374 27.3334 12.1667V9.50008C27.3334 8.02942 26.1374 6.83342 24.6667 6.83342ZM18.6667 2.83341C19.7694 2.83341 20.6667 3.73075 20.6667 4.83342C20.6667 6.83342 19.8321 6.83342 19.3334 6.83342H16.0294C16.7107 4.73208 17.7001 2.83341 18.6667 2.83341ZM7.33342 4.83342C7.33342 3.73075 8.23075 2.83341 9.33342 2.83341C10.5174 2.83341 11.6187 4.86675 12.2641 6.83342H8.66675C8.16808 6.83342 7.33342 6.83342 7.33342 4.83342ZM3.33341 9.50008H12.6667V12.1667H3.33341V9.50008ZM6.00008 24.1667V14.8334H12.6667V24.1667H6.00008ZM22.0001 24.1667H15.3334V14.8334H22.0001V24.1667ZM15.3334 12.1667V9.61341L15.3561 9.50008H24.6667L24.6681 12.1667H15.3334Z"/></svg>