<svg width="230" height="76" viewBox="0 0 230 76" fill="none" xmlns="http://www.w3.org/2000/svg">
<path d="M84.8387 63.8261L86.0171 61.0672L84.8387 63.8261ZM218.745 1.79072C218.078 0.274438 216.307 -0.413343 214.791 0.254522L190.081 11.138C188.565 11.8059 187.877 13.5765 188.545 15.0928C189.213 16.6091 190.984 17.2968 192.5 16.629L214.464 6.95475L224.138 28.9186C224.806 30.4349 226.576 31.1226 228.093 30.4548C229.609 29.7869 230.297 28.0163 229.629 26.5L218.745 1.79072ZM3.38702 16.9031C1.66899 14.4438 1.66114 14.4493 1.65327 14.4548C1.65058 14.4567 1.64259 14.4624 1.63719 14.4663C1.62636 14.4741 1.61529 14.4821 1.60399 14.4904C1.58141 14.5071 1.55792 14.5249 1.53362 14.5439C1.48506 14.5818 1.43307 14.6245 1.37859 14.6724C1.26981 14.768 1.14969 14.8853 1.02663 15.0265C0.778991 15.3107 0.520449 15.6911 0.323595 16.1768C-0.0932178 17.2053 -0.110864 18.39 0.291227 19.6245C1.01986 21.8613 3.1975 24.5037 7.69478 27.9689C16.8552 35.0272 37.5272 46.8816 83.6604 66.585L86.0171 61.0672C39.9182 41.3784 19.8643 29.7713 11.3569 23.2162C7.02027 19.8747 6.1285 18.1723 5.9962 17.7661C5.96782 17.679 6.07183 17.9677 5.88429 18.4304C5.80207 18.6333 5.68507 18.8134 5.55031 18.9681C5.48369 19.0446 5.41285 19.1147 5.33923 19.1794C5.30233 19.2118 5.2644 19.2432 5.22549 19.2736C5.20603 19.2888 5.18626 19.3037 5.16621 19.3185C5.15618 19.3259 5.14607 19.3333 5.13587 19.3406C5.13079 19.3443 5.12306 19.3498 5.12052 19.3516C5.11281 19.357 5.10504 19.3624 3.38702 16.9031ZM83.6604 66.585C107.241 76.6563 127.617 77.8775 144.921 73.8629C162.189 69.8566 176.16 60.6923 187.069 50.3635C197.972 40.0406 205.888 28.4888 211.071 19.5484C213.667 15.0712 215.589 11.2306 216.865 8.49938C217.503 7.13331 217.981 6.04341 218.302 5.28857C218.462 4.9111 218.583 4.61729 218.665 4.41449C218.706 4.31309 218.738 4.23442 218.76 4.17941C218.771 4.15191 218.779 4.13032 218.785 4.11475C218.788 4.10697 218.791 4.1007 218.793 4.09594C218.794 4.09357 218.795 4.09114 218.795 4.08995C218.796 4.08792 218.796 4.08626 216 3C213.204 1.91374 213.204 1.91285 213.204 1.91234C213.204 1.91267 213.204 1.91254 213.204 1.9132C213.203 1.91454 213.202 1.91738 213.2 1.92172C213.197 1.93039 213.191 1.94505 213.183 1.96556C213.167 2.00659 213.141 2.07107 213.106 2.15809C213.035 2.33212 212.926 2.59625 212.779 2.94319C212.484 3.63716 212.035 4.66191 211.429 5.95924C210.216 8.55485 208.376 12.2361 205.881 16.5388C200.883 25.1583 193.302 36.199 182.944 46.0066C172.591 55.8084 159.537 64.3126 143.565 68.0182C127.629 71.7154 108.552 70.6919 86.0171 61.0672L83.6604 66.585Z" fill="#FC3266"/>
</svg>
